<svg width="631" height="650" viewBox="0 0 631 650" fill="none" xmlns="http://www.w3.org/2000/svg">
<path d="M0 325C0 504.493 145.507 650 325 650C400.199 650 469.432 624.461 524.5 581.582C547.788 563.449 521.5 493.5 521.5 493.5L517.5 474.5L510.5 464.5L479 529C479 529 443.5 506.114 329 505.5C231.509 504.977 153.559 429.408 149.5 332C145.313 231.507 224.472 146.729 325 143.5C403.5 140.979 484 121 484 121L575.5 194.5C575.5 99.5002 470 0.00012207 325 0.00012207C145.507 0.00012207 0 145.507 0 325Z" fill="#293250" fill-opacity="0.27"/>
<path d="M26 325C26 504.493 171.507 650 351 650C426.199 650 495.432 624.461 550.5 581.582C573.788 563.449 547.5 493.5 547.5 493.5L543.5 474.5L536.5 464.5L504.5 515C504.5 515 472.5 521.114 358 520.5C260.509 519.977 179.559 429.408 175.5 332C171.313 231.507 250.472 146.729 351 143.5C429.5 140.979 504.5 137 504.5 137L601.5 194.5C601.5 99.5002 496 0.00012207 351 0.00012207C171.507 0.00012207 26 145.507 26 325Z" fill="#6DD47E" fill-opacity="0.4"/>
<path d="M56 325C56 504.492 201.507 650 381 650C456.199 650 525.432 624.461 580.5 581.582C603.788 563.449 577.5 493.5 577.5 493.5L573.5 474.5L566.5 464.5L537.5 358C537.5 358 547 506.369 385 505.5C287.509 504.977 209.559 429.408 205.5 332C201.313 231.507 280.472 146.729 381 143.5C471 140.609 512.5 194.5 512.5 194.5H630C630 99.5001 526 0 381 0C201.507 0 56 145.507 56 325Z" fill="#FFD55A"/>
<path d="M513 305.5C513 279.819 533.819 259 559.5 259V259C585.181 259 606 279.819 606 305.5V487.938C606 487.938 606 487.938 606 487.938C606 487.938 606 548.421 580.101 576.414C551 607.867 513 622 513 622V305.5Z" fill="#6DD47E" fill-opacity="0.4"/>
<path d="M538 290.5C538 264.819 558.819 244 584.5 244V244C610.181 244 631 264.819 631 290.5V472.778C631 472.884 630.999 472.991 630.997 473.097C630.921 476.361 629.299 528.933 602.5 559.5C570.5 596 538 609.5 538 609.5V290.5Z" fill="#293250"/>
<circle cx="558" cy="194" r="45" fill="#293250" fill-opacity="0.25"/>
<circle cx="586" cy="184" r="45" fill="#6DD47E"/>
</svg>
